solid OpenSCAD_Model
  facet normal 0.866025 0.5 0
    outer loop
      vertex 10.9625 4.88084 120
      vertex 9.7082 7.05342 0
      vertex 9.7082 7.05342 120
    endloop
  endfacet
  facet normal 0.866025 0.5 0
    outer loop
      vertex 9.7082 7.05342 0
      vertex 10.9625 4.88084 120
      vertex 10.9625 4.88084 0
    endloop
  endfacet
  facet normal 0.743145 0.669131 0
    outer loop
      vertex 9.7082 7.05342 120
      vertex 8.02957 8.91774 0
      vertex 8.02957 8.91774 120
    endloop
  endfacet
  facet normal 0.743145 0.669131 0
    outer loop
      vertex 8.02957 8.91774 0
      vertex 9.7082 7.05342 120
      vertex 9.7082 7.05342 0
    endloop
  endfacet
  facet normal 0.406737 0.913545 -0
    outer loop
      vertex 6 10.3923 0
      vertex 3.7082 11.4127 120
      vertex 6 10.3923 120
    endloop
  endfacet
  facet normal 0.406737 0.913545 0
    outer loop
      vertex 3.7082 11.4127 120
      vertex 6 10.3923 0
      vertex 3.7082 11.4127 0
    endloop
  endfacet
  facet normal -0.406737 0.913545 0
    outer loop
      vertex -3.7082 11.4127 0
      vertex -6 10.3923 120
      vertex -3.7082 11.4127 120
    endloop
  endfacet
  facet normal -0.406737 0.913545 0
    outer loop
      vertex -6 10.3923 120
      vertex -3.7082 11.4127 0
      vertex -6 10.3923 0
    endloop
  endfacet
  facet normal -0.866025 0.5 0
    outer loop
      vertex -10.9625 4.88084 0
      vertex -9.7082 7.05342 120
      vertex -9.7082 7.05342 0
    endloop
  endfacet
  facet normal -0.866025 0.5 0
    outer loop
      vertex -9.7082 7.05342 120
      vertex -10.9625 4.88084 0
      vertex -10.9625 4.88084 120
    endloop
  endfacet
  facet normal 0.994522 -0.104529 0
    outer loop
      vertex 11.7378 -2.49494 120
      vertex 12 0 0
      vertex 12 0 120
    endloop
  endfacet
  facet normal 0.994522 -0.104529 0
    outer loop
      vertex 12 0 0
      vertex 11.7378 -2.49494 120
      vertex 11.7378 -2.49494 0
    endloop
  endfacet
  facet normal 0.951057 0.309017 0
    outer loop
      vertex 11.7378 2.49494 120
      vertex 10.9625 4.88084 0
      vertex 10.9625 4.88084 120
    endloop
  endfacet
  facet normal 0.951057 0.309017 0
    outer loop
      vertex 10.9625 4.88084 0
      vertex 11.7378 2.49494 120
      vertex 11.7378 2.49494 0
    endloop
  endfacet
  facet normal 0.587785 0.809017 -0
    outer loop
      vertex 8.02957 8.91774 0
      vertex 6 10.3923 120
      vertex 8.02957 8.91774 120
    endloop
  endfacet
  facet normal 0.587785 0.809017 0
    outer loop
      vertex 6 10.3923 120
      vertex 8.02957 8.91774 0
      vertex 6 10.3923 0
    endloop
  endfacet
  facet normal 0 1 -0
    outer loop
      vertex 1.25434 11.9343 0
      vertex -1.25434 11.9343 120
      vertex 1.25434 11.9343 120
    endloop
  endfacet
  facet normal 0 1 0
    outer loop
      vertex -1.25434 11.9343 120
      vertex 1.25434 11.9343 0
      vertex -1.25434 11.9343 0
    endloop
  endfacet
  facet normal -0.994522 0.104529 0
    outer loop
      vertex -12 0 0
      vertex -11.7378 2.49494 120
      vertex -11.7378 2.49494 0
    endloop
  endfacet
  facet normal -0.994522 0.104529 0
    outer loop
      vertex -11.7378 2.49494 120
      vertex -12 0 0
      vertex -12 0 120
    endloop
  endfacet
  facet normal -0.587785 0.809017 0
    outer loop
      vertex -6 10.3923 0
      vertex -8.02957 8.91774 120
      vertex -6 10.3923 120
    endloop
  endfacet
  facet normal -0.587785 0.809017 0
    outer loop
      vertex -8.02957 8.91774 120
      vertex -6 10.3923 0
      vertex -8.02957 8.91774 0
    endloop
  endfacet
  facet normal -0.207912 0.978148 0
    outer loop
      vertex -1.25434 11.9343 0
      vertex -3.7082 11.4127 120
      vertex -1.25434 11.9343 120
    endloop
  endfacet
  facet normal -0.207912 0.978148 0
    outer loop
      vertex -3.7082 11.4127 120
      vertex -1.25434 11.9343 0
      vertex -3.7082 11.4127 0
    endloop
  endfacet
  facet normal -0.743145 0.669131 0
    outer loop
      vertex -9.7082 7.05342 0
      vertex -8.02957 8.91774 120
      vertex -8.02957 8.91774 0
    endloop
  endfacet
  facet normal -0.743145 0.669131 0
    outer loop
      vertex -8.02957 8.91774 120
      vertex -9.7082 7.05342 0
      vertex -9.7082 7.05342 120
    endloop
  endfacet
  facet normal 0.994522 0.104529 0
    outer loop
      vertex 12 0 120
      vertex 11.7378 2.49494 0
      vertex 11.7378 2.49494 120
    endloop
  endfacet
  facet normal 0.994522 0.104529 0
    outer loop
      vertex 11.7378 2.49494 0
      vertex 12 0 120
      vertex 12 0 0
    endloop
  endfacet
  facet normal 0.587785 -0.809017 0
    outer loop
      vertex 6 -10.3923 0
      vertex 8.02957 -8.91774 120
      vertex 6 -10.3923 120
    endloop
  endfacet
  facet normal 0.587785 -0.809017 0
    outer loop
      vertex 8.02957 -8.91774 120
      vertex 6 -10.3923 0
      vertex 8.02957 -8.91774 0
    endloop
  endfacet
  facet normal 0.951057 -0.309017 0
    outer loop
      vertex 10.9625 -4.88084 120
      vertex 11.7378 -2.49494 0
      vertex 11.7378 -2.49494 120
    endloop
  endfacet
  facet normal 0.951057 -0.309017 0
    outer loop
      vertex 11.7378 -2.49494 0
      vertex 10.9625 -4.88084 120
      vertex 10.9625 -4.88084 0
    endloop
  endfacet
  facet normal -0.207912 -0.978148 0
    outer loop
      vertex -3.7082 -11.4127 0
      vertex -1.25434 -11.9343 120
      vertex -3.7082 -11.4127 120
    endloop
  endfacet
  facet normal -0.207912 -0.978148 -0
    outer loop
      vertex -1.25434 -11.9343 120
      vertex -3.7082 -11.4127 0
      vertex -1.25434 -11.9343 0
    endloop
  endfacet
  facet normal 0.207912 0.978148 -0
    outer loop
      vertex 3.7082 11.4127 0
      vertex 1.25434 11.9343 120
      vertex 3.7082 11.4127 120
    endloop
  endfacet
  facet normal 0.207912 0.978148 0
    outer loop
      vertex 1.25434 11.9343 120
      vertex 3.7082 11.4127 0
      vertex 1.25434 11.9343 0
    endloop
  endfacet
  facet normal 0 0 1
    outer loop
      vertex 10.5 0 120
      vertex 12 0 120
      vertex 11.7378 2.49494 120
    endloop
  endfacet
  facet normal 0 0 1
    outer loop
      vertex 10.2705 2.18307 120
      vertex 11.7378 2.49494 120
      vertex 10.9625 4.88084 120
    endloop
  endfacet
  facet normal 0 0 1
    outer loop
      vertex 12 0 120
      vertex 10.5 0 120
      vertex 11.7378 -2.49494 120
    endloop
  endfacet
  facet normal -0 0 1
    outer loop
      vertex 10.2705 -2.18307 120
      vertex 11.7378 -2.49494 120
      vertex 10.5 0 120
    endloop
  endfacet
  facet normal 0 0 1
    outer loop
      vertex 11.7378 2.49494 120
      vertex 10.2705 2.18307 120
      vertex 10.5 0 120
    endloop
  endfacet
  facet normal 0 0 1
    outer loop
      vertex 9.59223 4.27073 120
      vertex 10.9625 4.88084 120
      vertex 9.7082 7.05342 120
    endloop
  endfacet
  facet normal 0 0 1
    outer loop
      vertex 10.9625 4.88084 120
      vertex 9.59223 4.27073 120
      vertex 10.2705 2.18307 120
    endloop
  endfacet
  facet normal 0 0 1
    outer loop
      vertex 9.7082 7.05342 120
      vertex 8.49468 6.17174 120
      vertex 9.59223 4.27073 120
    endloop
  endfacet
  facet normal 0 0 1
    outer loop
      vertex 8.02957 8.91774 120
      vertex 8.49468 6.17174 120
      vertex 9.7082 7.05342 120
    endloop
  endfacet
  facet normal 0 0 1
    outer loop
      vertex 8.02957 8.91774 120
      vertex 7.02587 7.80302 120
      vertex 8.49468 6.17174 120
    endloop
  endfacet
  facet normal 0 0 1
    outer loop
      vertex 6 10.3923 120
      vertex 7.02587 7.80302 120
      vertex 8.02957 8.91774 120
    endloop
  endfacet
  facet normal 0 0 1
    outer loop
      vertex 6 10.3923 120
      vertex 5.25 9.09327 120
      vertex 7.02587 7.80302 120
    endloop
  endfacet
  facet normal 0 0 1
    outer loop
      vertex 3.7082 11.4127 120
      vertex 5.25 9.09327 120
      vertex 6 10.3923 120
    endloop
  endfacet
  facet normal 0 0 1
    outer loop
      vertex 3.7082 11.4127 120
      vertex 3.24468 9.98609 120
      vertex 5.25 9.09327 120
    endloop
  endfacet
  facet normal 0 0 1
    outer loop
      vertex 1.25434 11.9343 120
      vertex 3.24468 9.98609 120
      vertex 3.7082 11.4127 120
    endloop
  endfacet
  facet normal 0 0 1
    outer loop
      vertex 1.25434 11.9343 120
      vertex 1.09755 10.4425 120
      vertex 3.24468 9.98609 120
    endloop
  endfacet
  facet normal 0 0 1
    outer loop
      vertex 1.25434 11.9343 120
      vertex -1.09755 10.4425 120
      vertex 1.09755 10.4425 120
    endloop
  endfacet
  facet normal -0 0 1
    outer loop
      vertex -1.25434 11.9343 120
      vertex -1.09755 10.4425 120
      vertex 1.25434 11.9343 120
    endloop
  endfacet
  facet normal 0 0 1
    outer loop
      vertex -1.25434 11.9343 120
      vertex -3.24468 9.98609 120
      vertex -1.09755 10.4425 120
    endloop
  endfacet
  facet normal -0 0 1
    outer loop
      vertex -3.7082 11.4127 120
      vertex -3.24468 9.98609 120
      vertex -1.25434 11.9343 120
    endloop
  endfacet
  facet normal 0 0 1
    outer loop
      vertex -3.7082 11.4127 120
      vertex -5.25 9.09327 120
      vertex -3.24468 9.98609 120
    endloop
  endfacet
  facet normal -0 0 1
    outer loop
      vertex -6 10.3923 120
      vertex -5.25 9.09327 120
      vertex -3.7082 11.4127 120
    endloop
  endfacet
  facet normal 0 0 1
    outer loop
      vertex -6 10.3923 120
      vertex -7.02587 7.80302 120
      vertex -5.25 9.09327 120
    endloop
  endfacet
  facet normal -0 0 1
    outer loop
      vertex -8.02957 8.91774 120
      vertex -7.02587 7.80302 120
      vertex -6 10.3923 120
    endloop
  endfacet
  facet normal 0 0 1
    outer loop
      vertex -8.02957 8.91774 120
      vertex -8.49468 6.17174 120
      vertex -7.02587 7.80302 120
    endloop
  endfacet
  facet normal -0 0 1
    outer loop
      vertex -9.7082 7.05342 120
      vertex -8.49468 6.17174 120
      vertex -8.02957 8.91774 120
    endloop
  endfacet
  facet normal 0 0 1
    outer loop
      vertex -8.49468 6.17174 120
      vertex -9.7082 7.05342 120
      vertex -9.59223 4.27073 120
    endloop
  endfacet
  facet normal -0 0 1
    outer loop
      vertex -10.9625 4.88084 120
      vertex -9.59223 4.27073 120
      vertex -9.7082 7.05342 120
    endloop
  endfacet
  facet normal -0 0 1
    outer loop
      vertex -11.7378 2.49494 120
      vertex -10.2705 2.18307 120
      vertex -10.9625 4.88084 120
    endloop
  endfacet
  facet normal 0 0 1
    outer loop
      vertex -9.59223 4.27073 120
      vertex -10.9625 4.88084 120
      vertex -10.2705 2.18307 120
    endloop
  endfacet
  facet normal 0 0 1
    outer loop
      vertex 11.7378 -2.49494 120
      vertex 10.2705 -2.18307 120
      vertex 10.9625 -4.88084 120
    endloop
  endfacet
  facet normal -0 0 1
    outer loop
      vertex 9.59223 -4.27073 120
      vertex 10.9625 -4.88084 120
      vertex 10.2705 -2.18307 120
    endloop
  endfacet
  facet normal 0 0 1
    outer loop
      vertex 10.9625 -4.88084 120
      vertex 9.59223 -4.27073 120
      vertex 9.7082 -7.05342 120
    endloop
  endfacet
  facet normal -0 0 1
    outer loop
      vertex 8.49468 -6.17174 120
      vertex 9.7082 -7.05342 120
      vertex 9.59223 -4.27073 120
    endloop
  endfacet
  facet normal 0 0 1
    outer loop
      vertex 8.49468 -6.17174 120
      vertex 8.02957 -8.91774 120
      vertex 9.7082 -7.05342 120
    endloop
  endfacet
  facet normal -0 0 1
    outer loop
      vertex 7.02587 -7.80302 120
      vertex 8.02957 -8.91774 120
      vertex 8.49468 -6.17174 120
    endloop
  endfacet
  facet normal 0 0 1
    outer loop
      vertex 7.02587 -7.80302 120
      vertex 6 -10.3923 120
      vertex 8.02957 -8.91774 120
    endloop
  endfacet
  facet normal -0 0 1
    outer loop
      vertex 5.25 -9.09327 120
      vertex 6 -10.3923 120
      vertex 7.02587 -7.80302 120
    endloop
  endfacet
  facet normal 0 0 1
    outer loop
      vertex 5.25 -9.09327 120
      vertex 3.7082 -11.4127 120
      vertex 6 -10.3923 120
    endloop
  endfacet
  facet normal -0 0 1
    outer loop
      vertex 3.24468 -9.98609 120
      vertex 3.7082 -11.4127 120
      vertex 5.25 -9.09327 120
    endloop
  endfacet
  facet normal 0 0 1
    outer loop
      vertex 3.24468 -9.98609 120
      vertex 1.25434 -11.9343 120
      vertex 3.7082 -11.4127 120
    endloop
  endfacet
  facet normal -0 0 1
    outer loop
      vertex 1.09755 -10.4425 120
      vertex 1.25434 -11.9343 120
      vertex 3.24468 -9.98609 120
    endloop
  endfacet
  facet normal -0 0 1
    outer loop
      vertex -1.09755 -10.4425 120
      vertex 1.25434 -11.9343 120
      vertex 1.09755 -10.4425 120
    endloop
  endfacet
  facet normal 0 0 1
    outer loop
      vertex -1.09755 -10.4425 120
      vertex -1.25434 -11.9343 120
      vertex 1.25434 -11.9343 120
    endloop
  endfacet
  facet normal 0 0 1
    outer loop
      vertex -3.24468 -9.98609 120
      vertex -1.25434 -11.9343 120
      vertex -1.09755 -10.4425 120
    endloop
  endfacet
  facet normal 0 0 1
    outer loop
      vertex -3.24468 -9.98609 120
      vertex -3.7082 -11.4127 120
      vertex -1.25434 -11.9343 120
    endloop
  endfacet
  facet normal 0 0 1
    outer loop
      vertex -5.25 -9.09327 120
      vertex -3.7082 -11.4127 120
      vertex -3.24468 -9.98609 120
    endloop
  endfacet
  facet normal 0 0 1
    outer loop
      vertex -5.25 -9.09327 120
      vertex -6 -10.3923 120
      vertex -3.7082 -11.4127 120
    endloop
  endfacet
  facet normal 0 0 1
    outer loop
      vertex -7.02587 -7.80302 120
      vertex -6 -10.3923 120
      vertex -5.25 -9.09327 120
    endloop
  endfacet
  facet normal 0 0 1
    outer loop
      vertex -7.02587 -7.80302 120
      vertex -8.02957 -8.91774 120
      vertex -6 -10.3923 120
    endloop
  endfacet
  facet normal 0 0 1
    outer loop
      vertex -8.49468 -6.17174 120
      vertex -8.02957 -8.91774 120
      vertex -7.02587 -7.80302 120
    endloop
  endfacet
  facet normal 0 0 1
    outer loop
      vertex -9.7082 -7.05342 120
      vertex -8.49468 -6.17174 120
      vertex -9.59223 -4.27073 120
    endloop
  endfacet
  facet normal 0 0 1
    outer loop
      vertex -8.49468 -6.17174 120
      vertex -9.7082 -7.05342 120
      vertex -8.02957 -8.91774 120
    endloop
  endfacet
  facet normal 0 0 1
    outer loop
      vertex -10.9625 -4.88084 120
      vertex -9.59223 -4.27073 120
      vertex -10.2705 -2.18307 120
    endloop
  endfacet
  facet normal 0 0 1
    outer loop
      vertex -9.59223 -4.27073 120
      vertex -10.9625 -4.88084 120
      vertex -9.7082 -7.05342 120
    endloop
  endfacet
  facet normal 0 0 1
    outer loop
      vertex -11.7378 -2.49494 120
      vertex -10.2705 -2.18307 120
      vertex -10.5 0 120
    endloop
  endfacet
  facet normal 0 0 1
    outer loop
      vertex -10.2705 2.18307 120
      vertex -11.7378 2.49494 120
      vertex -10.5 0 120
    endloop
  endfacet
  facet normal 0 0 1
    outer loop
      vertex -12 0 120
      vertex -10.5 0 120
      vertex -11.7378 2.49494 120
    endloop
  endfacet
  facet normal 0 0 1
    outer loop
      vertex -10.2705 -2.18307 120
      vertex -11.7378 -2.49494 120
      vertex -10.9625 -4.88084 120
    endloop
  endfacet
  facet normal 0 0 1
    outer loop
      vertex -10.5 0 120
      vertex -12 0 120
      vertex -11.7378 -2.49494 120
    endloop
  endfacet
  facet normal -0.951057 0.309017 0
    outer loop
      vertex -11.7378 2.49494 0
      vertex -10.9625 4.88084 120
      vertex -10.9625 4.88084 0
    endloop
  endfacet
  facet normal -0.951057 0.309017 0
    outer loop
      vertex -10.9625 4.88084 120
      vertex -11.7378 2.49494 0
      vertex -11.7378 2.49494 120
    endloop
  endfacet
  facet normal 0.866025 -0.5 0
    outer loop
      vertex 9.7082 -7.05342 120
      vertex 10.9625 -4.88084 0
      vertex 10.9625 -4.88084 120
    endloop
  endfacet
  facet normal 0.866025 -0.5 0
    outer loop
      vertex 10.9625 -4.88084 0
      vertex 9.7082 -7.05342 120
      vertex 9.7082 -7.05342 0
    endloop
  endfacet
  facet normal -0.994522 -0.104529 0
    outer loop
      vertex -11.7378 -2.49494 0
      vertex -12 0 120
      vertex -12 0 0
    endloop
  endfacet
  facet normal -0.994522 -0.104529 0
    outer loop
      vertex -12 0 120
      vertex -11.7378 -2.49494 0
      vertex -11.7378 -2.49494 120
    endloop
  endfacet
  facet normal 0.207912 -0.978148 0
    outer loop
      vertex 1.25434 -11.9343 0
      vertex 3.7082 -11.4127 120
      vertex 1.25434 -11.9343 120
    endloop
  endfacet
  facet normal 0.207912 -0.978148 0
    outer loop
      vertex 3.7082 -11.4127 120
      vertex 1.25434 -11.9343 0
      vertex 3.7082 -11.4127 0
    endloop
  endfacet
  facet normal 0.406737 -0.913545 0
    outer loop
      vertex 3.7082 -11.4127 0
      vertex 6 -10.3923 120
      vertex 3.7082 -11.4127 120
    endloop
  endfacet
  facet normal 0.406737 -0.913545 0
    outer loop
      vertex 6 -10.3923 120
      vertex 3.7082 -11.4127 0
      vertex 6 -10.3923 0
    endloop
  endfacet
  facet normal -0.406737 -0.913545 0
    outer loop
      vertex -6 -10.3923 0
      vertex -3.7082 -11.4127 120
      vertex -6 -10.3923 120
    endloop
  endfacet
  facet normal -0.406737 -0.913545 -0
    outer loop
      vertex -3.7082 -11.4127 120
      vertex -6 -10.3923 0
      vertex -3.7082 -11.4127 0
    endloop
  endfacet
  facet normal 0 -1 0
    outer loop
      vertex -1.25434 -11.9343 0
      vertex 1.25434 -11.9343 120
      vertex -1.25434 -11.9343 120
    endloop
  endfacet
  facet normal 0 -1 -0
    outer loop
      vertex 1.25434 -11.9343 120
      vertex -1.25434 -11.9343 0
      vertex 1.25434 -11.9343 0
    endloop
  endfacet
  facet normal 0 0 -1
    outer loop
      vertex 10.5 0 0
      vertex 12 0 0
      vertex 11.7378 -2.49494 0
    endloop
  endfacet
  facet normal 0 0 -1
    outer loop
      vertex 10.2705 -2.18307 0
      vertex 11.7378 -2.49494 0
      vertex 10.9625 -4.88084 0
    endloop
  endfacet
  facet normal 0 0 -1
    outer loop
      vertex 12 0 0
      vertex 10.5 0 0
      vertex 11.7378 2.49494 0
    endloop
  endfacet
  facet normal 0 0 -1
    outer loop
      vertex 10.2705 2.18307 0
      vertex 11.7378 2.49494 0
      vertex 10.5 0 0
    endloop
  endfacet
  facet normal 0 0 -1
    outer loop
      vertex 11.7378 -2.49494 0
      vertex 10.2705 -2.18307 0
      vertex 10.5 0 0
    endloop
  endfacet
  facet normal 0 0 -1
    outer loop
      vertex 9.59223 -4.27073 0
      vertex 10.9625 -4.88084 0
      vertex 9.7082 -7.05342 0
    endloop
  endfacet
  facet normal 0 0 -1
    outer loop
      vertex 10.9625 -4.88084 0
      vertex 9.59223 -4.27073 0
      vertex 10.2705 -2.18307 0
    endloop
  endfacet
  facet normal 0 0 -1
    outer loop
      vertex 9.7082 -7.05342 0
      vertex 8.49468 -6.17174 0
      vertex 9.59223 -4.27073 0
    endloop
  endfacet
  facet normal 0 0 -1
    outer loop
      vertex 8.02957 -8.91774 0
      vertex 8.49468 -6.17174 0
      vertex 9.7082 -7.05342 0
    endloop
  endfacet
  facet normal 0 0 -1
    outer loop
      vertex 8.02957 -8.91774 0
      vertex 7.02587 -7.80302 0
      vertex 8.49468 -6.17174 0
    endloop
  endfacet
  facet normal 0 0 -1
    outer loop
      vertex 6 -10.3923 0
      vertex 7.02587 -7.80302 0
      vertex 8.02957 -8.91774 0
    endloop
  endfacet
  facet normal 0 0 -1
    outer loop
      vertex 6 -10.3923 0
      vertex 5.25 -9.09327 0
      vertex 7.02587 -7.80302 0
    endloop
  endfacet
  facet normal 0 0 -1
    outer loop
      vertex 3.7082 -11.4127 0
      vertex 5.25 -9.09327 0
      vertex 6 -10.3923 0
    endloop
  endfacet
  facet normal 0 0 -1
    outer loop
      vertex 3.7082 -11.4127 0
      vertex 3.24468 -9.98609 0
      vertex 5.25 -9.09327 0
    endloop
  endfacet
  facet normal 0 0 -1
    outer loop
      vertex 1.25434 -11.9343 0
      vertex 3.24468 -9.98609 0
      vertex 3.7082 -11.4127 0
    endloop
  endfacet
  facet normal 0 0 -1
    outer loop
      vertex 1.25434 -11.9343 0
      vertex 1.09755 -10.4425 0
      vertex 3.24468 -9.98609 0
    endloop
  endfacet
  facet normal 0 0 -1
    outer loop
      vertex 1.25434 -11.9343 0
      vertex -1.09755 -10.4425 0
      vertex 1.09755 -10.4425 0
    endloop
  endfacet
  facet normal 0 0 -1
    outer loop
      vertex -1.25434 -11.9343 0
      vertex -1.09755 -10.4425 0
      vertex 1.25434 -11.9343 0
    endloop
  endfacet
  facet normal 0 0 -1
    outer loop
      vertex -1.25434 -11.9343 0
      vertex -3.24468 -9.98609 0
      vertex -1.09755 -10.4425 0
    endloop
  endfacet
  facet normal 0 0 -1
    outer loop
      vertex -3.7082 -11.4127 0
      vertex -3.24468 -9.98609 0
      vertex -1.25434 -11.9343 0
    endloop
  endfacet
  facet normal 0 0 -1
    outer loop
      vertex -3.7082 -11.4127 0
      vertex -5.25 -9.09327 0
      vertex -3.24468 -9.98609 0
    endloop
  endfacet
  facet normal 0 0 -1
    outer loop
      vertex -6 -10.3923 0
      vertex -5.25 -9.09327 0
      vertex -3.7082 -11.4127 0
    endloop
  endfacet
  facet normal 0 0 -1
    outer loop
      vertex -6 -10.3923 0
      vertex -7.02587 -7.80302 0
      vertex -5.25 -9.09327 0
    endloop
  endfacet
  facet normal 0 0 -1
    outer loop
      vertex -8.02957 -8.91774 0
      vertex -7.02587 -7.80302 0
      vertex -6 -10.3923 0
    endloop
  endfacet
  facet normal 0 0 -1
    outer loop
      vertex -8.02957 -8.91774 0
      vertex -8.49468 -6.17174 0
      vertex -7.02587 -7.80302 0
    endloop
  endfacet
  facet normal 0 0 -1
    outer loop
      vertex -9.7082 -7.05342 0
      vertex -8.49468 -6.17174 0
      vertex -8.02957 -8.91774 0
    endloop
  endfacet
  facet normal -0 0 -1
    outer loop
      vertex -8.49468 -6.17174 0
      vertex -9.7082 -7.05342 0
      vertex -9.59223 -4.27073 0
    endloop
  endfacet
  facet normal 0 0 -1
    outer loop
      vertex -10.9625 -4.88084 0
      vertex -9.59223 -4.27073 0
      vertex -9.7082 -7.05342 0
    endloop
  endfacet
  facet normal 0 0 -1
    outer loop
      vertex -11.7378 -2.49494 0
      vertex -10.2705 -2.18307 0
      vertex -10.9625 -4.88084 0
    endloop
  endfacet
  facet normal -0 0 -1
    outer loop
      vertex -9.59223 -4.27073 0
      vertex -10.9625 -4.88084 0
      vertex -10.2705 -2.18307 0
    endloop
  endfacet
  facet normal -0 0 -1
    outer loop
      vertex 11.7378 2.49494 0
      vertex 10.2705 2.18307 0
      vertex 10.9625 4.88084 0
    endloop
  endfacet
  facet normal 0 0 -1
    outer loop
      vertex 9.59223 4.27073 0
      vertex 10.9625 4.88084 0
      vertex 10.2705 2.18307 0
    endloop
  endfacet
  facet normal -0 0 -1
    outer loop
      vertex 10.9625 4.88084 0
      vertex 9.59223 4.27073 0
      vertex 9.7082 7.05342 0
    endloop
  endfacet
  facet normal 0 0 -1
    outer loop
      vertex 8.49468 6.17174 0
      vertex 9.7082 7.05342 0
      vertex 9.59223 4.27073 0
    endloop
  endfacet
  facet normal 0 0 -1
    outer loop
      vertex 8.49468 6.17174 0
      vertex 8.02957 8.91774 0
      vertex 9.7082 7.05342 0
    endloop
  endfacet
  facet normal 0 0 -1
    outer loop
      vertex 7.02587 7.80302 0
      vertex 8.02957 8.91774 0
      vertex 8.49468 6.17174 0
    endloop
  endfacet
  facet normal 0 0 -1
    outer loop
      vertex 7.02587 7.80302 0
      vertex 6 10.3923 0
      vertex 8.02957 8.91774 0
    endloop
  endfacet
  facet normal 0 0 -1
    outer loop
      vertex 5.25 9.09327 0
      vertex 6 10.3923 0
      vertex 7.02587 7.80302 0
    endloop
  endfacet
  facet normal 0 0 -1
    outer loop
      vertex 5.25 9.09327 0
      vertex 3.7082 11.4127 0
      vertex 6 10.3923 0
    endloop
  endfacet
  facet normal 0 0 -1
    outer loop
      vertex 3.24468 9.98609 0
      vertex 3.7082 11.4127 0
      vertex 5.25 9.09327 0
    endloop
  endfacet
  facet normal 0 0 -1
    outer loop
      vertex 3.24468 9.98609 0
      vertex 1.25434 11.9343 0
      vertex 3.7082 11.4127 0
    endloop
  endfacet
  facet normal 0 0 -1
    outer loop
      vertex 1.09755 10.4425 0
      vertex 1.25434 11.9343 0
      vertex 3.24468 9.98609 0
    endloop
  endfacet
  facet normal 0 0 -1
    outer loop
      vertex -1.09755 10.4425 0
      vertex 1.25434 11.9343 0
      vertex 1.09755 10.4425 0
    endloop
  endfacet
  facet normal 0 0 -1
    outer loop
      vertex -1.09755 10.4425 0
      vertex -1.25434 11.9343 0
      vertex 1.25434 11.9343 0
    endloop
  endfacet
  facet normal 0 0 -1
    outer loop
      vertex -3.24468 9.98609 0
      vertex -1.25434 11.9343 0
      vertex -1.09755 10.4425 0
    endloop
  endfacet
  facet normal 0 0 -1
    outer loop
      vertex -3.24468 9.98609 0
      vertex -3.7082 11.4127 0
      vertex -1.25434 11.9343 0
    endloop
  endfacet
  facet normal 0 0 -1
    outer loop
      vertex -5.25 9.09327 0
      vertex -3.7082 11.4127 0
      vertex -3.24468 9.98609 0
    endloop
  endfacet
  facet normal 0 0 -1
    outer loop
      vertex -5.25 9.09327 0
      vertex -6 10.3923 0
      vertex -3.7082 11.4127 0
    endloop
  endfacet
  facet normal 0 0 -1
    outer loop
      vertex -7.02587 7.80302 0
      vertex -6 10.3923 0
      vertex -5.25 9.09327 0
    endloop
  endfacet
  facet normal 0 0 -1
    outer loop
      vertex -7.02587 7.80302 0
      vertex -8.02957 8.91774 0
      vertex -6 10.3923 0
    endloop
  endfacet
  facet normal 0 0 -1
    outer loop
      vertex -8.49468 6.17174 0
      vertex -8.02957 8.91774 0
      vertex -7.02587 7.80302 0
    endloop
  endfacet
  facet normal 0 0 -1
    outer loop
      vertex -9.7082 7.05342 0
      vertex -8.49468 6.17174 0
      vertex -9.59223 4.27073 0
    endloop
  endfacet
  facet normal 0 0 -1
    outer loop
      vertex -8.49468 6.17174 0
      vertex -9.7082 7.05342 0
      vertex -8.02957 8.91774 0
    endloop
  endfacet
  facet normal 0 0 -1
    outer loop
      vertex -10.9625 4.88084 0
      vertex -9.59223 4.27073 0
      vertex -10.2705 2.18307 0
    endloop
  endfacet
  facet normal 0 0 -1
    outer loop
      vertex -9.59223 4.27073 0
      vertex -10.9625 4.88084 0
      vertex -9.7082 7.05342 0
    endloop
  endfacet
  facet normal 0 0 -1
    outer loop
      vertex -11.7378 2.49494 0
      vertex -10.2705 2.18307 0
      vertex -10.5 0 0
    endloop
  endfacet
  facet normal -0 0 -1
    outer loop
      vertex -10.2705 -2.18307 0
      vertex -11.7378 -2.49494 0
      vertex -10.5 0 0
    endloop
  endfacet
  facet normal 0 0 -1
    outer loop
      vertex -12 0 0
      vertex -10.5 0 0
      vertex -11.7378 -2.49494 0
    endloop
  endfacet
  facet normal 0 0 -1
    outer loop
      vertex -10.2705 2.18307 0
      vertex -11.7378 2.49494 0
      vertex -10.9625 4.88084 0
    endloop
  endfacet
  facet normal 0 0 -1
    outer loop
      vertex -10.5 0 0
      vertex -12 0 0
      vertex -11.7378 2.49494 0
    endloop
  endfacet
  facet normal -0.951057 -0.309017 0
    outer loop
      vertex -10.9625 -4.88084 0
      vertex -11.7378 -2.49494 120
      vertex -11.7378 -2.49494 0
    endloop
  endfacet
  facet normal -0.951057 -0.309017 0
    outer loop
      vertex -11.7378 -2.49494 120
      vertex -10.9625 -4.88084 0
      vertex -10.9625 -4.88084 120
    endloop
  endfacet
  facet normal -0.743145 -0.669131 0
    outer loop
      vertex -8.02957 -8.91774 0
      vertex -9.7082 -7.05342 120
      vertex -9.7082 -7.05342 0
    endloop
  endfacet
  facet normal -0.743145 -0.669131 0
    outer loop
      vertex -9.7082 -7.05342 120
      vertex -8.02957 -8.91774 0
      vertex -8.02957 -8.91774 120
    endloop
  endfacet
  facet normal -0.866025 -0.5 0
    outer loop
      vertex -9.7082 -7.05342 0
      vertex -10.9625 -4.88084 120
      vertex -10.9625 -4.88084 0
    endloop
  endfacet
  facet normal -0.866025 -0.5 0
    outer loop
      vertex -10.9625 -4.88084 120
      vertex -9.7082 -7.05342 0
      vertex -9.7082 -7.05342 120
    endloop
  endfacet
  facet normal 0.743145 -0.669131 0
    outer loop
      vertex 8.02957 -8.91774 120
      vertex 9.7082 -7.05342 0
      vertex 9.7082 -7.05342 120
    endloop
  endfacet
  facet normal 0.743145 -0.669131 0
    outer loop
      vertex 9.7082 -7.05342 0
      vertex 8.02957 -8.91774 120
      vertex 8.02957 -8.91774 0
    endloop
  endfacet
  facet normal -0.587785 -0.809017 0
    outer loop
      vertex -8.02957 -8.91774 0
      vertex -6 -10.3923 120
      vertex -8.02957 -8.91774 120
    endloop
  endfacet
  facet normal -0.587785 -0.809017 -0
    outer loop
      vertex -6 -10.3923 120
      vertex -8.02957 -8.91774 0
      vertex -6 -10.3923 0
    endloop
  endfacet
  facet normal -0.994522 -0.104529 0
    outer loop
      vertex 10.5 0 0
      vertex 10.2705 2.18307 120
      vertex 10.2705 2.18307 0
    endloop
  endfacet
  facet normal -0.994522 -0.104529 0
    outer loop
      vertex 10.2705 2.18307 120
      vertex 10.5 0 0
      vertex 10.5 0 120
    endloop
  endfacet
  facet normal 0.994522 -0.104529 0
    outer loop
      vertex -10.5 0 120
      vertex -10.2705 2.18307 0
      vertex -10.2705 2.18307 120
    endloop
  endfacet
  facet normal 0.994522 -0.104529 0
    outer loop
      vertex -10.2705 2.18307 0
      vertex -10.5 0 120
      vertex -10.5 0 0
    endloop
  endfacet
  facet normal 0 -1 0
    outer loop
      vertex -1.09755 10.4425 0
      vertex 1.09755 10.4425 120
      vertex -1.09755 10.4425 120
    endloop
  endfacet
  facet normal 0 -1 -0
    outer loop
      vertex 1.09755 10.4425 120
      vertex -1.09755 10.4425 0
      vertex 1.09755 10.4425 0
    endloop
  endfacet
  facet normal 0 1 -0
    outer loop
      vertex 1.09755 -10.4425 0
      vertex -1.09755 -10.4425 120
      vertex 1.09755 -10.4425 120
    endloop
  endfacet
  facet normal 0 1 0
    outer loop
      vertex -1.09755 -10.4425 120
      vertex 1.09755 -10.4425 0
      vertex -1.09755 -10.4425 0
    endloop
  endfacet
  facet normal -0.743145 -0.66913 0
    outer loop
      vertex 8.49468 6.17174 0
      vertex 7.02587 7.80302 120
      vertex 7.02587 7.80302 0
    endloop
  endfacet
  facet normal -0.743145 -0.66913 0
    outer loop
      vertex 7.02587 7.80302 120
      vertex 8.49468 6.17174 0
      vertex 8.49468 6.17174 120
    endloop
  endfacet
  facet normal -0.951056 -0.309017 0
    outer loop
      vertex 10.2705 2.18307 0
      vertex 9.59223 4.27073 120
      vertex 9.59223 4.27073 0
    endloop
  endfacet
  facet normal -0.951056 -0.309017 0
    outer loop
      vertex 9.59223 4.27073 120
      vertex 10.2705 2.18307 0
      vertex 10.2705 2.18307 120
    endloop
  endfacet
  facet normal 0.587785 -0.809017 0
    outer loop
      vertex -7.02587 7.80302 0
      vertex -5.25 9.09327 120
      vertex -7.02587 7.80302 120
    endloop
  endfacet
  facet normal 0.587785 -0.809017 0
    outer loop
      vertex -5.25 9.09327 120
      vertex -7.02587 7.80302 0
      vertex -5.25 9.09327 0
    endloop
  endfacet
  facet normal 0.406736 -0.913546 0
    outer loop
      vertex -5.25 9.09327 0
      vertex -3.24468 9.98609 120
      vertex -5.25 9.09327 120
    endloop
  endfacet
  facet normal 0.406736 -0.913546 0
    outer loop
      vertex -3.24468 9.98609 120
      vertex -5.25 9.09327 0
      vertex -3.24468 9.98609 0
    endloop
  endfacet
  facet normal -0.866025 0.5 0
    outer loop
      vertex 8.49468 -6.17174 0
      vertex 9.59223 -4.27073 120
      vertex 9.59223 -4.27073 0
    endloop
  endfacet
  facet normal -0.866025 0.5 0
    outer loop
      vertex 9.59223 -4.27073 120
      vertex 8.49468 -6.17174 0
      vertex 8.49468 -6.17174 120
    endloop
  endfacet
  facet normal -0.866025 -0.5 0
    outer loop
      vertex 9.59223 4.27073 0
      vertex 8.49468 6.17174 120
      vertex 8.49468 6.17174 0
    endloop
  endfacet
  facet normal -0.866025 -0.5 0
    outer loop
      vertex 8.49468 6.17174 120
      vertex 9.59223 4.27073 0
      vertex 9.59223 4.27073 120
    endloop
  endfacet
  facet normal -0.406736 -0.913546 0
    outer loop
      vertex 3.24468 9.98609 0
      vertex 5.25 9.09327 120
      vertex 3.24468 9.98609 120
    endloop
  endfacet
  facet normal -0.406736 -0.913546 -0
    outer loop
      vertex 5.25 9.09327 120
      vertex 3.24468 9.98609 0
      vertex 5.25 9.09327 0
    endloop
  endfacet
  facet normal -0.207912 -0.978148 0
    outer loop
      vertex 1.09755 10.4425 0
      vertex 3.24468 9.98609 120
      vertex 1.09755 10.4425 120
    endloop
  endfacet
  facet normal -0.207912 -0.978148 -0
    outer loop
      vertex 3.24468 9.98609 120
      vertex 1.09755 10.4425 0
      vertex 3.24468 9.98609 0
    endloop
  endfacet
  facet normal -0.587785 -0.809017 0
    outer loop
      vertex 5.25 9.09327 0
      vertex 7.02587 7.80302 120
      vertex 5.25 9.09327 120
    endloop
  endfacet
  facet normal -0.587785 -0.809017 -0
    outer loop
      vertex 7.02587 7.80302 120
      vertex 5.25 9.09327 0
      vertex 7.02587 7.80302 0
    endloop
  endfacet
  facet normal 0.866025 -0.5 0
    outer loop
      vertex -9.59223 4.27073 120
      vertex -8.49468 6.17174 0
      vertex -8.49468 6.17174 120
    endloop
  endfacet
  facet normal 0.866025 -0.5 0
    outer loop
      vertex -8.49468 6.17174 0
      vertex -9.59223 4.27073 120
      vertex -9.59223 4.27073 0
    endloop
  endfacet
  facet normal 0.743145 -0.66913 0
    outer loop
      vertex -8.49468 6.17174 120
      vertex -7.02587 7.80302 0
      vertex -7.02587 7.80302 120
    endloop
  endfacet
  facet normal 0.743145 -0.66913 0
    outer loop
      vertex -7.02587 7.80302 0
      vertex -8.49468 6.17174 120
      vertex -8.49468 6.17174 0
    endloop
  endfacet
  facet normal 0.951056 -0.309017 0
    outer loop
      vertex -10.2705 2.18307 120
      vertex -9.59223 4.27073 0
      vertex -9.59223 4.27073 120
    endloop
  endfacet
  facet normal 0.951056 -0.309017 0
    outer loop
      vertex -9.59223 4.27073 0
      vertex -10.2705 2.18307 120
      vertex -10.2705 2.18307 0
    endloop
  endfacet
  facet normal 0.207912 -0.978148 0
    outer loop
      vertex -3.24468 9.98609 0
      vertex -1.09755 10.4425 120
      vertex -3.24468 9.98609 120
    endloop
  endfacet
  facet normal 0.207912 -0.978148 0
    outer loop
      vertex -1.09755 10.4425 120
      vertex -3.24468 9.98609 0
      vertex -1.09755 10.4425 0
    endloop
  endfacet
  facet normal -0.994522 0.104529 0
    outer loop
      vertex 10.2705 -2.18307 0
      vertex 10.5 0 120
      vertex 10.5 0 0
    endloop
  endfacet
  facet normal -0.994522 0.104529 0
    outer loop
      vertex 10.5 0 120
      vertex 10.2705 -2.18307 0
      vertex 10.2705 -2.18307 120
    endloop
  endfacet
  facet normal -0.587785 0.809017 0
    outer loop
      vertex 7.02587 -7.80302 0
      vertex 5.25 -9.09327 120
      vertex 7.02587 -7.80302 120
    endloop
  endfacet
  facet normal -0.587785 0.809017 0
    outer loop
      vertex 5.25 -9.09327 120
      vertex 7.02587 -7.80302 0
      vertex 5.25 -9.09327 0
    endloop
  endfacet
  facet normal -0.743145 0.66913 0
    outer loop
      vertex 7.02587 -7.80302 0
      vertex 8.49468 -6.17174 120
      vertex 8.49468 -6.17174 0
    endloop
  endfacet
  facet normal -0.743145 0.66913 0
    outer loop
      vertex 8.49468 -6.17174 120
      vertex 7.02587 -7.80302 0
      vertex 7.02587 -7.80302 120
    endloop
  endfacet
  facet normal -0.951056 0.309017 0
    outer loop
      vertex 9.59223 -4.27073 0
      vertex 10.2705 -2.18307 120
      vertex 10.2705 -2.18307 0
    endloop
  endfacet
  facet normal -0.951056 0.309017 0
    outer loop
      vertex 10.2705 -2.18307 120
      vertex 9.59223 -4.27073 0
      vertex 9.59223 -4.27073 120
    endloop
  endfacet
  facet normal 0.587785 0.809017 -0
    outer loop
      vertex -5.25 -9.09327 0
      vertex -7.02587 -7.80302 120
      vertex -5.25 -9.09327 120
    endloop
  endfacet
  facet normal 0.587785 0.809017 0
    outer loop
      vertex -7.02587 -7.80302 120
      vertex -5.25 -9.09327 0
      vertex -7.02587 -7.80302 0
    endloop
  endfacet
  facet normal 0.866025 0.5 0
    outer loop
      vertex -8.49468 -6.17174 120
      vertex -9.59223 -4.27073 0
      vertex -9.59223 -4.27073 120
    endloop
  endfacet
  facet normal 0.866025 0.5 0
    outer loop
      vertex -9.59223 -4.27073 0
      vertex -8.49468 -6.17174 120
      vertex -8.49468 -6.17174 0
    endloop
  endfacet
  facet normal 0.406736 0.913546 -0
    outer loop
      vertex -3.24468 -9.98609 0
      vertex -5.25 -9.09327 120
      vertex -3.24468 -9.98609 120
    endloop
  endfacet
  facet normal 0.406736 0.913546 0
    outer loop
      vertex -5.25 -9.09327 120
      vertex -3.24468 -9.98609 0
      vertex -5.25 -9.09327 0
    endloop
  endfacet
  facet normal 0.743145 0.66913 0
    outer loop
      vertex -7.02587 -7.80302 120
      vertex -8.49468 -6.17174 0
      vertex -8.49468 -6.17174 120
    endloop
  endfacet
  facet normal 0.743145 0.66913 0
    outer loop
      vertex -8.49468 -6.17174 0
      vertex -7.02587 -7.80302 120
      vertex -7.02587 -7.80302 0
    endloop
  endfacet
  facet normal 0.951056 0.309017 0
    outer loop
      vertex -9.59223 -4.27073 120
      vertex -10.2705 -2.18307 0
      vertex -10.2705 -2.18307 120
    endloop
  endfacet
  facet normal 0.951056 0.309017 0
    outer loop
      vertex -10.2705 -2.18307 0
      vertex -9.59223 -4.27073 120
      vertex -9.59223 -4.27073 0
    endloop
  endfacet
  facet normal 0.994522 0.104529 0
    outer loop
      vertex -10.2705 -2.18307 120
      vertex -10.5 0 0
      vertex -10.5 0 120
    endloop
  endfacet
  facet normal 0.994522 0.104529 0
    outer loop
      vertex -10.5 0 0
      vertex -10.2705 -2.18307 120
      vertex -10.2705 -2.18307 0
    endloop
  endfacet
  facet normal -0.406736 0.913546 0
    outer loop
      vertex 5.25 -9.09327 0
      vertex 3.24468 -9.98609 120
      vertex 5.25 -9.09327 120
    endloop
  endfacet
  facet normal -0.406736 0.913546 0
    outer loop
      vertex 3.24468 -9.98609 120
      vertex 5.25 -9.09327 0
      vertex 3.24468 -9.98609 0
    endloop
  endfacet
  facet normal -0.207912 0.978148 0
    outer loop
      vertex 3.24468 -9.98609 0
      vertex 1.09755 -10.4425 120
      vertex 3.24468 -9.98609 120
    endloop
  endfacet
  facet normal -0.207912 0.978148 0
    outer loop
      vertex 1.09755 -10.4425 120
      vertex 3.24468 -9.98609 0
      vertex 1.09755 -10.4425 0
    endloop
  endfacet
  facet normal 0.207912 0.978148 -0
    outer loop
      vertex -1.09755 -10.4425 0
      vertex -3.24468 -9.98609 120
      vertex -1.09755 -10.4425 120
    endloop
  endfacet
  facet normal 0.207912 0.978148 0
    outer loop
      vertex -3.24468 -9.98609 120
      vertex -1.09755 -10.4425 0
      vertex -3.24468 -9.98609 0
    endloop
  endfacet
endsolid OpenSCAD_Model
